<svg xmlns="http://www.w3.org/2000/svg" version="1.1" xmlns:xlink="http://www.w3.org/1999/xlink" xmlns:svgjs="http://svgjs.dev/svgjs" width="1500" height="1500" viewBox="0 0 1500 1500"><g transform="matrix(1,0,0,1,0,0.0010652748310349125)"><svg viewBox="0 0 280 280" data-background-color="#ffffff" preserveAspectRatio="xMidYMid meet" height="1500" width="1500" xmlns="http://www.w3.org/2000/svg" xmlns:xlink="http://www.w3.org/1999/xlink"><g id="tight-bounds" transform="matrix(1,0,0,1,0,-0.00019885130180341548)"><svg viewBox="0 0 280 280" height="280" width="280"><g><svg viewBox="0 0 280 280" height="280" width="280"><g><svg viewBox="0 0 280 280" height="280" width="280"><g id="textblocktransform"><svg viewBox="0 0 280 280" height="280" width="280" id="textblock"><g><svg viewBox="0 0 280 280" height="280" width="280"><g transform="matrix(1,0,0,1,74.00336708925556,106.86082351033161)"><svg viewBox="0 0 131.99326582148888 66.27835297933677" height="66.27835297933677" width="131.99326582148888"><g id="icon-0"><svg xmlns="http://www.w3.org/2000/svg" xmlns:xlink="http://www.w3.org/1999/xlink" version="1.1" x="0" y="0" viewBox="473.716 170.769 8.901999999999987 4.469999999999999" enable-background="new 468.167 163.006 20 19.999" xml:space="preserve" height="66.27835297933677" width="131.99326582148888" class="icon-jxe-0" data-fill-palette-color="accent" id="jxe-0"><path d="M482.613 174.123L482.614 174.075V174.071C482.572 173.651 482.225 173.358 481.552 173.176 480.715 172.949 480.486 172.819 480.07 172.574L480.049 172.562C479.596 172.298 478.469 171.609 478.072 171.271 477.704 170.958 477.453 170.769 477.066 170.769 477.002 170.769 476.932 170.775 476.857 170.786 476.394 170.853 476.242 170.99 475.993 171.249L475.979 171.263 475.967 171.28C475.795 171.516 475.616 171.636 475.439 171.636 475.173 171.636 474.904 171.377 474.789 171.204 474.66 171.01 474.497 170.98 474.411 170.98 474.288 170.98 474.058 171.039 473.904 171.422 473.72 171.881 473.716 173.892 473.716 174.119V174.735C473.716 175.214 474.042 175.239 474.108 175.239H482.172C482.618 175.239 482.618 174.649 482.618 174.397V174.119H482.613zM480.573 173.151C480.655 173.186 480.745 173.219 480.845 173.255 480.756 173.3 480.676 173.365 480.606 173.424 480.484 173.528 480.405 173.585 480.34 173.554 480.318 173.542 480.317 173.533 480.316 173.528 480.305 173.446 480.468 173.26 480.582 173.162zM476.898 171.063C476.96 171.054 477.014 171.05 477.067 171.05 477.349 171.05 477.536 171.183 477.892 171.487 478.214 171.76 478.96 172.233 479.491 172.555 479.484 172.569 479.476 172.581 479.47 172.595 479.272 172.953 479.101 173.264 477.886 173.264 476.524 173.264 474.49 172.645 474.046 172.38L474.066 172.127C474.45 172.398 475.234 172.629 475.808 172.629 475.995 172.629 476.159 172.606 476.28 172.55 476.62 172.397 476.553 172.133 476.495 171.901 476.431 171.639 476.362 171.37 476.714 171.1 476.768 171.086 476.826 171.073 476.898 171.063M474.163 171.528C474.233 171.352 474.324 171.26 474.411 171.26 474.464 171.26 474.515 171.292 474.557 171.36 474.698 171.571 475.037 171.916 475.439 171.916 475.678 171.916 475.939 171.793 476.193 171.444 476.263 171.371 476.322 171.311 476.382 171.261 476.25 171.502 476.31 171.742 476.358 171.933 476.423 172.194 476.445 172.321 476.22 172.423 475.745 172.638 474.491 172.319 474.079 171.962 474.104 171.768 474.13 171.612 474.163 171.528M474.035 172.534C474.636 172.847 476.621 173.403 477.886 173.403 479.184 173.403 479.382 173.044 479.591 172.663L479.611 172.628 479.91 172.806C480.102 172.917 480.26 173.008 480.448 173.096 480.352 173.187 480.161 173.389 480.18 173.544A0.17 0.17 0 0 0 480.281 173.678 0.2 0.2 0 0 0 480.381 173.702C480.492 173.702 480.597 173.614 480.697 173.53 480.82 173.426 480.947 173.321 481.091 173.344L481.093 173.332C481.207 173.367 481.336 173.404 481.484 173.443 482.372 173.683 482.33 174.049 482.343 174.121H476.425A0.425 0.425 0 0 0 476.027 173.839H474.843A0.39 0.39 0 0 0 474.477 174.121H473.997C473.993 173.832 474.002 173.139 474.035 172.534M482.172 174.965H474.108C473.995 174.965 473.995 174.795 473.995 174.738V174.4H474.728V174.287C474.728 174.175 474.785 174.117 474.841 174.117H476.025C476.139 174.117 476.195 174.23 476.195 174.4H482.341C482.341 174.569 482.341 174.965 482.172 174.965M477.097 171.36A0.169 0.169 0 1 1 477.435 171.36 0.169 0.169 0 1 1 477.097 171.36M477.604 171.811A0.17 0.17 0 1 1 477.944 171.811 0.17 0.17 0 0 1 477.604 171.81M478.111 172.149C478.111 172.055 478.187 171.981 478.28 171.981A0.17 0.17 0 1 1 478.111 172.149M478.618 172.487A0.169 0.169 0 1 1 478.956 172.487 0.169 0.169 0 1 1 478.618 172.487M479.69 173.108A0.17 0.17 0 1 1 480.03 173.108 0.17 0.17 0 0 1 479.69 173.107" fill="#4d7e3e" data-fill-palette-color="accent"></path></svg></g></svg></g><g id="text-0"><path d="M2.082 103.803l-0.831-0.295 6.965-19.635 7.989 2.409-0.242 0.679c-3.049-0.033-5.281 0.387-6.696 1.26-1.415 0.873-2.551 2.517-3.408 4.934v0l-0.375 1.057 12.272 4.353 0.603-1.699c0.429-1.208 0.345-2.372-0.25-3.49-0.595-1.118-1.607-2.101-3.036-2.947v0l0.201-0.566 11.177 3.965-0.227 0.642c-2.031-0.267-3.576-0.185-4.637 0.247-1.06 0.432-1.809 1.264-2.246 2.497v0l-0.603 1.7 11.517 4.085 1.661-4.682 0.83 0.295-5.063 14.273-0.831-0.295 0.791-2.228-24.771-8.787z" fill="#4d7e3e" data-fill-palette-color="primary"></path><path d="M51.976 55.403v0l-2.488-2.326c-1.893-1.769-3.369-2.957-4.429-3.564-1.06-0.607-1.936-0.539-2.63 0.202v0c-0.401 0.429-0.603 0.89-0.605 1.381-0.002 0.491 0.225 1.06 0.681 1.707v0c0.714 0.996 1.969 2.334 3.764 4.011v0l2.283 2.134c2.127 1.988 3.464 3.119 4.013 3.394 0.548 0.274 1.022 0.471 1.423 0.59v0c0.669 0.223 1.295 0.022 1.879-0.602v0c0.711-0.761 0.737-1.669 0.078-2.724v0c-0.46-0.759-1.783-2.16-3.969-4.203zM56.339 62.881c-2.28 2.439-4.628 3.7-7.044 3.781-2.416 0.082-4.79-0.967-7.123-3.147-2.332-2.18-3.502-4.526-3.511-7.039-0.009-2.513 1.117-4.98 3.378-7.399 2.262-2.42 4.529-3.682 6.803-3.788 2.274-0.105 4.601 0.955 6.982 3.18v0c4.976 4.651 5.148 9.455 0.515 14.412z" fill="#4d7e3e" data-fill-palette-color="primary"></path><path d="M94.609 27.113v0l-1.339-3.132c-1.019-2.382-1.891-4.064-2.617-5.046-0.725-0.982-1.555-1.274-2.488-0.875v0c-0.54 0.231-0.91 0.571-1.111 1.02-0.2 0.449-0.222 1.061-0.064 1.836v0c0.252 1.2 0.861 2.929 1.828 5.188v0l1.229 2.873c1.145 2.677 1.913 4.251 2.304 4.723 0.391 0.472 0.746 0.843 1.065 1.114v0c0.522 0.474 1.176 0.543 1.962 0.206v0c0.958-0.41 1.348-1.23 1.169-2.461v0c-0.115-0.88-0.761-2.696-1.938-5.446zM95.588 35.715c-3.07 1.313-5.727 1.52-7.971 0.621-2.244-0.899-3.994-2.816-5.249-5.751-1.256-2.935-1.381-5.554-0.377-7.857 1.004-2.304 3.029-4.107 6.075-5.41 3.045-1.303 5.629-1.544 7.752-0.724 2.123 0.82 3.826 2.728 5.107 5.724v0c2.679 6.262 0.9 10.728-5.337 13.397z" fill="#4d7e3e" data-fill-palette-color="primary"></path><path d="M134.14 20.412v0l-0.1-12.62-2.204 0.017-0.006-0.721 2.204-0.018-0.041-5.168 7.437-1.902 0.056 7.011 5.208-0.041 0.006 0.721-5.208 0.041 0.107 13.502c0.01 1.255 0.144 2.176 0.402 2.762 0.258 0.586 0.788 0.875 1.59 0.869 0.801-0.006 1.499-0.413 2.094-1.219 0.595-0.806 0.98-1.904 1.156-3.295v0l0.681 0.075c-0.199 1.845-0.775 3.312-1.728 4.401-0.953 1.089-2.538 1.643-4.755 1.66-2.217 0.018-3.916-0.41-5.098-1.281-1.182-0.872-1.783-2.47-1.801-4.794z" fill="#4d7e3e" data-fill-palette-color="primary"></path><path d="M184.102 35.119c-3.208-1.257-5.29-3.027-6.246-5.31-0.956-2.282-0.856-4.897 0.298-7.844 1.155-2.947 2.941-4.851 5.358-5.71 2.417-0.86 5.018-0.744 7.804 0.347v0c5.645 2.212 7.245 6.11 4.799 11.692v0l-10.52-4.123-0.57 1.455c-0.955 2.437-1.365 4.399-1.231 5.886 0.134 1.487 0.973 2.533 2.514 3.138v0c2.885 1.131 5.379 0.329 7.483-2.404v0l0.628 0.375c-1.174 1.605-2.572 2.664-4.193 3.177-1.621 0.512-3.662 0.286-6.124-0.679zM186.641 21.612l-0.716 1.828 3.842 1.506 0.716-1.828c0.789-2.014 1.21-3.435 1.262-4.261 0.051-0.826-0.277-1.378-0.987-1.656-0.709-0.278-1.385-0.091-2.027 0.561-0.643 0.652-1.339 1.935-2.09 3.85z" fill="#4d7e3e" data-fill-palette-color="primary"></path><path d="M237.929 50.069v0c-0.702-0.696-1.77-0.851-3.204-0.467-1.434 0.384-2.771 1.203-4.011 2.456v0l-7.557 7.628 2.021 2.002-0.508 0.512-8.881-8.797 0.508-0.513 1.566 1.551 12.406-12.524-1.565-1.551 0.507-0.512 6.86 6.795-2.707 2.733c1.205-0.723 2.418-0.998 3.637-0.825 1.219 0.174 2.275 0.702 3.166 1.586 0.892 0.884 1.369 1.854 1.43 2.912 0.062 1.057-0.363 2.046-1.275 2.966-0.912 0.92-1.821 1.42-2.726 1.5-0.906 0.08-1.791-0.308-2.655-1.163-0.863-0.855-1.217-1.77-1.061-2.743 0.156-0.973 0.884-1.813 2.184-2.518v0l1.024 1.016c1.433-0.498 1.713-1.179 0.841-2.044z" fill="#4d7e3e" data-fill-palette-color="primary"></path><path d="M271.324 81.177l7.425 18.39-0.817 0.33-28.775-1.172 0.51 1.264c0.9 2.229 2.405 3.904 4.514 5.026 2.109 1.122 4.626 1.524 7.552 1.206v0l0.27 0.669-9.245 3.214-7.68-19.021 0.705-0.285 28.969 1.223-0.615-1.524c-0.89-2.204-2.048-3.681-3.474-4.43-1.426-0.749-3.927-1.237-7.505-1.464v0l-0.27-0.668z" fill="#4d7e3e" data-fill-palette-color="primary"></path><path d="M3.572 143.307c0-5.917 4.797-10.714 10.714-10.713 5.917 0 10.714 4.797 10.713 10.713 0 5.917-4.797 10.714-10.713 10.714-5.917 0-10.714-4.797-10.714-10.714z" fill="#4d7e3e" data-fill-palette-color="primary"></path><path d="M255.991 143.307c0-5.917 4.797-10.714 10.714-10.713 5.917 0 10.714 4.797 10.714 10.713 0 5.917-4.797 10.714-10.714 10.714-5.917 0-10.714-4.797-10.714-10.714z" fill="#4d7e3e" data-fill-palette-color="primary"></path></g><g id="text-1"><path d="M35.31 171.024l0.831-0.295 6.966 19.636-7.72 3.163-0.241-0.679c2.388-1.896 3.857-3.628 4.405-5.198 0.549-1.569 0.394-3.562-0.463-5.979v0l-0.375-1.057-12.272 4.354 0.603 1.699c0.429 1.208 1.226 2.059 2.393 2.552 1.167 0.493 2.572 0.618 4.214 0.375v0l0.201 0.567-11.177 3.965-0.228-0.642c1.745-1.073 2.893-2.11 3.445-3.114 0.551-1.003 0.608-2.122 0.17-3.355v0l-0.603-1.699-11.517 4.086 1.661 4.682-0.83 0.295-5.064-14.274 0.831-0.294 0.79 2.227 24.771-8.787z" fill="#31c48d" data-fill-palette-color="secondary"></path><path d="M49.576 233.456v0l2.488-2.326c1.893-1.769 3.178-3.162 3.854-4.178 0.677-1.017 0.669-1.896-0.024-2.637v0c-0.401-0.429-0.847-0.662-1.337-0.698-0.49-0.035-1.073 0.153-1.748 0.565v0c-1.042 0.645-2.461 1.807-4.257 3.485v0l-2.283 2.134c-2.127 1.988-3.346 3.246-3.657 3.774-0.311 0.528-0.539 0.988-0.684 1.38v0c-0.268 0.652-0.11 1.291 0.474 1.915v0c0.711 0.761 1.615 0.848 2.712 0.262v0c0.789-0.408 2.276-1.633 4.462-3.676zM41.82 237.304c-2.28-2.439-3.379-4.867-3.297-7.283 0.082-2.416 1.288-4.714 3.62-6.894 2.332-2.18 4.752-3.189 7.26-3.028 2.508 0.16 4.893 1.45 7.155 3.869 2.262 2.42 3.368 4.767 3.319 7.043-0.048 2.276-1.263 4.526-3.643 6.751v0c-4.976 4.651-9.78 4.498-14.414-0.458z" fill="#31c48d" data-fill-palette-color="secondary"></path><path d="M93.317 262.523v0l1.34-3.131c1.019-2.382 1.634-4.175 1.843-5.378 0.21-1.203-0.152-2.004-1.085-2.403v0c-0.54-0.231-1.042-0.264-1.505-0.099-0.463 0.165-0.92 0.572-1.372 1.221v0c-0.694 1.011-1.524 2.645-2.491 4.905v0l-1.229 2.873c-1.145 2.677-1.754 4.319-1.825 4.928-0.072 0.609-0.095 1.121-0.07 1.539v0c0.018 0.705 0.42 1.226 1.205 1.561v0c0.958 0.41 1.82 0.125 2.588-0.854v0c0.557-0.691 1.424-2.412 2.601-5.162zM87.771 269.171c-3.07-1.313-5.054-3.092-5.953-5.336-0.899-2.244-0.721-4.833 0.534-7.768 1.256-2.935 3.063-4.834 5.423-5.699 2.36-0.864 5.062-0.645 8.108 0.658 3.045 1.303 5.004 3.005 5.877 5.108 0.873 2.102 0.668 4.651-0.614 7.647v0c-2.679 6.262-7.138 8.059-13.375 5.39z" fill="#31c48d" data-fill-palette-color="secondary"></path><path d="M134.079 273.815v0l0.1-12.62-2.203-0.017 0.006-0.722 2.203 0.018 0.041-5.168 7.467-1.784-0.056 7.011 5.209 0.041-0.006 0.721-5.209-0.041-0.107 13.502c-0.01 1.255 0.11 2.178 0.359 2.767 0.249 0.59 0.774 0.888 1.576 0.894 0.801 0.006 1.506-0.389 2.113-1.185 0.607-0.797 1.01-1.889 1.208-3.276v0l0.68 0.086c-0.228 1.841-0.827 3.299-1.798 4.373-0.97 1.074-2.564 1.602-4.78 1.585-2.217-0.018-3.909-0.472-5.078-1.363-1.168-0.891-1.743-2.498-1.725-4.822z" fill="#31c48d" data-fill-palette-color="secondary"></path><path d="M191.353 269.999c-3.208 1.257-5.938 1.373-8.19 0.348-2.252-1.025-3.956-3.011-5.111-5.958-1.155-2.947-1.138-5.557 0.051-7.831 1.189-2.273 3.176-3.956 5.962-5.047v0c5.645-2.212 9.467-0.44 11.465 5.318v0l-10.52 4.123 0.571 1.454c0.955 2.437 1.987 4.156 3.096 5.156 1.109 1 2.434 1.198 3.976 0.593v0c2.885-1.131 4.171-3.413 3.857-6.848v0l0.716-0.151c0.229 1.976-0.077 3.702-0.918 5.179-0.841 1.477-2.493 2.698-4.955 3.664zM184.039 258.363l0.716 1.828 3.843-1.506-0.717-1.828c-0.789-2.014-1.446-3.342-1.97-3.983-0.524-0.641-1.14-0.823-1.848-0.545-0.709 0.278-1.078 0.874-1.107 1.789-0.029 0.915 0.332 2.33 1.083 4.245z" fill="#31c48d" data-fill-palette-color="secondary"></path><path d="M226.086 224.591v0c-0.702 0.696-0.868 1.762-0.497 3.199 0.371 1.437 1.177 2.782 2.418 4.035v0l7.557 7.628 2.02-2.002 0.508 0.512-8.881 8.798-0.507-0.512 1.565-1.551-12.406-12.524-1.566 1.551-0.508-0.513 6.86-6.795 2.707 2.732c-0.712-1.212-0.975-2.427-0.79-3.644 0.185-1.217 0.724-2.268 1.615-3.151 0.892-0.884 1.867-1.351 2.925-1.403 1.058-0.052 2.043 0.383 2.955 1.303 0.912 0.92 1.403 1.834 1.474 2.741 0.071 0.907-0.325 1.788-1.188 2.643-0.863 0.855-1.781 1.2-2.753 1.035-0.972-0.165-1.804-0.901-2.497-2.207v0l1.025-1.015c-0.484-1.438-1.163-1.724-2.036-0.86z" fill="#31c48d" data-fill-palette-color="secondary"></path><path d="M236.996 191.578l7.425-18.391 0.817 0.33 19.894 20.823 0.51-1.263c0.9-2.229 0.981-4.479 0.242-6.751-0.739-2.272-2.271-4.309-4.597-6.112v0l0.27-0.669 8.885 4.106-7.68 19.022-0.706-0.285-19.998-20.994-0.615 1.523c-0.89 2.204-1.082 4.071-0.576 5.6 0.506 1.529 1.967 3.617 4.384 6.264v0l-0.27 0.669z" fill="#31c48d" data-fill-palette-color="secondary"></path></g></svg></g></svg></g></svg></g></svg></g><defs></defs></svg><rect width="280" height="280" fill="none" stroke="none" visibility="hidden"></rect></g></svg></g></svg>